<svg width="32" height="32" viewBox="0 0 32 32" fill="none" xmlns="http://www.w3.org/2000/svg">
<g clip-path="url(#clip0_803_2)">
<path d="M24.5806 13.65C23.5868 11.7877 22.0144 10.2989 20.1006 9.40828C18.1868 8.51762 16.0353 8.27332 13.9705 8.71221C11.9057 9.1511 10.0396 10.2494 8.65348 11.8415C7.2674 13.4336 6.43651 15.4331 6.28609 17.5387C4.56901 17.7234 2.98801 18.5591 1.86842 19.874C0.748836 21.1889 0.175823 22.883 0.267295 24.6075C0.358767 26.3321 1.10777 27.956 2.36017 29.1451C3.61257 30.3342 5.27311 30.998 7.00009 31H23.0001C25.1834 31.0013 27.2882 30.1861 28.901 28.7145C30.5138 27.2428 31.5178 25.2213 31.7159 23.047C31.914 20.8727 31.2917 18.703 29.9714 16.9641C28.6511 15.2253 26.7282 14.0432 24.5806 13.65V13.65ZM23.0001 29.5H7.00009C5.66965 29.5031 4.38791 28.9997 3.41513 28.092C2.44236 27.1844 1.85148 25.9406 1.76247 24.6131C1.67346 23.2856 2.093 21.974 2.93589 20.9447C3.77878 19.9153 4.98185 19.2453 6.30079 19.0707C6.40657 20.3941 6.78215 21.6818 7.40439 22.8545C7.44944 22.9439 7.51194 23.0234 7.5882 23.0882C7.66445 23.1531 7.75292 23.2021 7.84839 23.2322C7.94386 23.2623 8.0444 23.273 8.14408 23.2637C8.24375 23.2544 8.34055 23.2252 8.42877 23.1778C8.51699 23.1305 8.59483 23.066 8.65772 22.9881C8.7206 22.9102 8.76726 22.8205 8.79493 22.7243C8.8226 22.6281 8.83073 22.5273 8.81884 22.4279C8.80695 22.3285 8.77528 22.2325 8.72569 22.1455C7.73438 20.2923 7.48773 18.1306 8.03608 16.1017C8.58442 14.0728 9.88643 12.3297 11.6763 11.2281C13.4662 10.1266 15.609 9.7497 17.6674 10.1744C19.7257 10.5991 21.5443 11.7933 22.7521 13.5133C21.5536 13.5463 20.3746 13.8252 19.2883 14.3327C18.202 14.8401 17.2316 15.5653 16.4371 16.4633C16.3694 16.5367 16.3171 16.6229 16.2832 16.7168C16.2493 16.8108 16.2345 16.9105 16.2397 17.0102C16.2448 17.1099 16.2699 17.2076 16.3133 17.2975C16.3567 17.3875 16.4176 17.4678 16.4925 17.5339C16.5673 17.5999 16.6546 17.6504 16.7493 17.6822C16.8439 17.7141 16.9439 17.7268 17.0435 17.7195C17.1431 17.7122 17.2402 17.6851 17.3292 17.6397C17.4181 17.5944 17.4972 17.5318 17.5616 17.4555C18.3628 16.5467 19.379 15.8532 20.5173 15.4383C21.6555 15.0234 22.8797 14.9004 24.0777 15.0806C25.2758 15.2607 26.4096 15.7382 27.3756 16.4694C28.3416 17.2006 29.109 18.1622 29.6075 19.2664C30.1061 20.3706 30.32 21.5822 30.2297 22.7903C30.1395 23.9985 29.7478 25.1648 29.0907 26.1826C28.4335 27.2004 27.5317 28.0373 26.4678 28.6168C25.4038 29.1963 24.2116 29.5 23.0001 29.5V29.5Z" fill="white"/>
<path d="M31.8983 10.2547C31.8485 10.1684 31.7822 10.0927 31.7031 10.032C31.6241 9.97135 31.5339 9.92684 31.4376 9.90106C31.3414 9.87528 31.241 9.86872 31.1422 9.88177C31.0434 9.89482 30.9481 9.92721 30.8619 9.9771L27.8419 11.7209C27.7532 11.7694 27.6751 11.8352 27.6122 11.9143C27.5492 11.9934 27.5028 12.0843 27.4755 12.1816C27.4482 12.2789 27.4406 12.3807 27.4532 12.481C27.4658 12.5813 27.4983 12.6781 27.5488 12.7657C27.5993 12.8532 27.6668 12.9298 27.7473 12.9909C27.8279 13.052 27.9198 13.0964 28.0177 13.1215C28.1156 13.1466 28.2176 13.1518 28.3176 13.137C28.4176 13.1221 28.5136 13.0874 28.6 13.0349L31.62 11.2911C31.7943 11.1905 31.9215 11.0249 31.9737 10.8305C32.0259 10.6362 31.9988 10.429 31.8983 10.2547V10.2547Z" fill="white"/>
<path d="M22.6766 7.86999C22.7629 7.91986 22.8581 7.95224 22.9569 7.96528C23.0557 7.97832 23.1561 7.97177 23.2523 7.94598C23.3486 7.9202 23.4388 7.8757 23.5179 7.81503C23.5969 7.75436 23.6632 7.6787 23.713 7.59239L25.4568 4.57239C25.5556 4.39824 25.5816 4.19209 25.5291 3.99887C25.4765 3.80565 25.3498 3.64103 25.1764 3.54089C25.003 3.44076 24.797 3.41323 24.6034 3.46431C24.4098 3.5154 24.2442 3.64094 24.1428 3.81359L22.399 6.83359C22.2984 7.00784 22.2711 7.21491 22.3232 7.40927C22.3753 7.60362 22.5024 7.76934 22.6766 7.86999V7.86999Z" fill="white"/>
<path d="M16 6.08105C16.2012 6.081 16.3942 6.00103 16.5365 5.85874C16.6787 5.71645 16.7587 5.52348 16.7588 5.32225V1.83465C16.7599 1.73428 16.7411 1.63467 16.7035 1.54161C16.6659 1.44854 16.6102 1.36386 16.5396 1.29247C16.4691 1.22109 16.385 1.16441 16.2924 1.12574C16.1998 1.08706 16.1004 1.06714 16 1.06714C15.8996 1.06714 15.8002 1.08706 15.7076 1.12574C15.615 1.16441 15.531 1.22109 15.4604 1.29247C15.3898 1.36386 15.3341 1.44854 15.2965 1.54161C15.2589 1.63467 15.2401 1.73428 15.2413 1.83465V5.32225C15.2413 5.52347 15.3212 5.71644 15.4635 5.85874C15.6058 6.00103 15.7987 6.081 16 6.08105V6.08105Z" fill="white"/>
<path d="M8.28731 7.59222C8.38874 7.76487 8.5543 7.89041 8.74791 7.9415C8.94152 7.99258 9.14748 7.96505 9.32088 7.86492C9.49428 7.76478 9.62106 7.60016 9.67359 7.40694C9.72612 7.21372 9.70014 7.00757 9.60131 6.83342L7.85751 3.81342C7.8081 3.72636 7.74194 3.64993 7.66285 3.58854C7.58377 3.52716 7.49331 3.48204 7.39671 3.45577C7.3001 3.42951 7.19925 3.42262 7.09997 3.43551C7.0007 3.44841 6.90495 3.48082 6.81825 3.53088C6.73156 3.58094 6.65563 3.64767 6.59484 3.72722C6.53405 3.80676 6.48961 3.89755 6.46407 3.99435C6.43853 4.09115 6.4324 4.19205 6.44603 4.29123C6.45967 4.3904 6.4928 4.48591 6.54351 4.57222L8.28731 7.59222Z" fill="white"/>
<path d="M4.15863 11.7209L1.13863 9.9771C1.05231 9.92639 0.956811 9.89326 0.857632 9.87963C0.758452 9.86599 0.657555 9.87212 0.560755 9.89766C0.463955 9.9232 0.373167 9.96765 0.293622 10.0284C0.214078 10.0892 0.147351 10.1652 0.0972871 10.2518C0.0472229 10.3385 0.0148115 10.4343 0.00192108 10.5336C-0.0109694 10.6328 -0.00408408 10.7337 0.0221802 10.8303C0.0484444 10.9269 0.0935682 11.0174 0.154951 11.0964C0.216334 11.1755 0.292761 11.2417 0.379829 11.2911L3.40013 13.0349C3.48645 13.0856 3.58195 13.1187 3.68113 13.1324C3.78031 13.146 3.8812 13.1399 3.978 13.1143C4.0748 13.0888 4.16559 13.0444 4.24514 12.9836C4.32468 12.9228 4.39141 12.8469 4.44147 12.7602C4.49154 12.6735 4.52395 12.5777 4.53684 12.4784C4.54973 12.3792 4.54284 12.2783 4.51658 12.1817C4.49031 12.0851 4.44519 11.9946 4.38381 11.9156C4.32242 11.8365 4.246 11.7703 4.15893 11.7209H4.15863Z" fill="white"/>
</g>
<defs>
<clipPath id="clip0_803_2">
<rect width="32" height="32" fill="white"/>
</clipPath>
</defs>
</svg>
